<svg xmlns="http://www.w3.org/2000/svg" xmlns:xlink="http://www.w3.org/1999/xlink" width="1080" zoomAndPan="magnify" viewBox="0 0 810 809.999993" height="1080" preserveAspectRatio="xMidYMid meet" version="1.0"><defs><clipPath id="e4333b6b12"><path d="M 101 71.316406 L 708 71.316406 L 708 738 L 101 738 Z M 101 71.316406 " clip-rule="nonzero"/></clipPath></defs><g clip-path="url(#e4333b6b12)"><path fill="#054a29" d="M 636.191406 668.882812 C 635.453125 642.089844 625.417969 618.367188 606.363281 598.378906 C 598.765625 590.40625 590.652344 582.566406 582.808594 574.984375 C 574.691406 567.117188 566.292969 558.984375 558.328125 550.601562 C 539.0625 530.320312 525.414062 505.449219 517.761719 476.660156 C 516.921875 473.496094 516.101562 470.316406 515.273438 467.144531 C 511.828125 453.8125 508.265625 440.03125 503.1875 427.359375 C 487.644531 388.5 458.96875 366.769531 417.941406 362.761719 C 413.855469 362.363281 409.84375 362.160156 405.90625 362.160156 C 376.539062 362.160156 351.535156 373.261719 331.433594 395.261719 C 311.878906 416.683594 304.632812 443.414062 300.121094 466.753906 C 294.382812 496.4375 284.371094 519.804688 269.523438 538.164062 C 254.210938 557.085938 237.21875 574.148438 224.121094 586.898438 C 198.960938 611.386719 185.675781 635.496094 182.308594 662.769531 C 180.144531 680.296875 183.582031 694.90625 192.816406 707.410156 C 202.542969 720.59375 216.886719 729.242188 236.664062 733.878906 C 255.90625 738.378906 271.707031 738.640625 286.394531 734.710938 C 292.550781 733.066406 303.550781 731.015625 312.464844 729.484375 C 320.394531 728.121094 326.183594 721.25 326.183594 713.207031 L 326.183594 629.054688 C 326.183594 585.550781 361.789062 549.507812 405.300781 549.820312 C 426.753906 549.96875 446.171875 558.734375 460.257812 572.820312 C 474.476562 587.027344 483.261719 606.660156 483.261719 628.351562 L 483.261719 710.027344 C 483.261719 718.476562 489.640625 725.574219 498.050781 726.457031 C 499.640625 726.625 501.238281 726.796875 502.832031 726.964844 C 507.601562 727.464844 512.238281 728.386719 516.726562 729.28125 C 518.472656 729.628906 520.222656 729.972656 521.96875 730.289062 C 529.703125 731.710938 537.425781 733.140625 545.160156 734.574219 L 553.886719 736.191406 C 573.976562 734.5 589.695312 730.339844 603.292969 723.109375 C 625.789062 711.136719 636.855469 692.890625 636.191406 668.882812 Z M 464.304688 658.382812 C 464.304688 651.394531 458.636719 645.730469 451.65625 645.730469 C 444.667969 645.730469 439 651.394531 439 658.382812 C 439 665.363281 444.667969 671.03125 451.65625 671.03125 C 458.636719 671.03125 464.304688 665.363281 464.304688 658.382812 Z M 239.925781 270.882812 C 213.945312 247.285156 193.503906 237.363281 169.371094 236.632812 C 168.5625 236.605469 167.75 236.59375 166.945312 236.59375 C 142.9375 236.59375 123.410156 247.761719 111.96875 268.027344 C 102.003906 285.675781 99.164062 305.996094 103.515625 328.433594 C 108.128906 352.203125 118.851562 372.835938 136.292969 391.507812 C 157.21875 413.902344 180.875 425.113281 208.621094 425.785156 C 228.152344 426.253906 245.0625 418.613281 257.480469 403.675781 C 267.835938 391.21875 273.375 376.0625 273.9375 358.628906 C 275.03125 325.023438 262.632812 293.039062 239.925781 270.882812 Z M 697.832031 264.644531 C 686.035156 242.710938 666.4375 230.625 642.632812 230.625 C 642.402344 230.625 642.171875 230.632812 641.941406 230.632812 C 621.667969 230.832031 602.648438 238.53125 585.398438 253.515625 C 567.117188 269.394531 554.613281 289 547.171875 313.445312 C 538.238281 342.769531 540.359375 368.863281 553.652344 393.214844 C 563.015625 410.386719 578.09375 421.195312 597.230469 424.476562 C 613.195312 427.214844 629.089844 424.429688 644.46875 416.199219 C 674.113281 400.339844 695.617188 373.617188 703.449219 342.863281 C 710.894531 308.574219 709.257812 285.90625 697.832031 264.644531 Z M 462.960938 241.742188 C 453.242188 256.234375 440.519531 266.152344 425.140625 271.234375 C 406.695312 277.320312 388.316406 274.851562 371.984375 264.097656 C 348.804688 248.832031 334.679688 226.789062 328.800781 196.710938 C 323.894531 171.632812 325.730469 148.449219 334.410156 125.851562 C 342.605469 104.515625 355.78125 88.785156 373.582031 79.097656 C 383.078125 73.925781 392.984375 71.300781 403.019531 71.300781 C 415.324219 71.300781 427.394531 75.195312 438.898438 82.878906 C 458.984375 96.28125 471.0625 115.527344 480.597656 149.296875 C 488.113281 180.125 481.6875 213.816406 462.960938 241.742188 " fill-opacity="1" fill-rule="nonzero"/></g></svg>